# xmcd CD database file
#
# Track frame offsets:
#	150
#	10723
#	24002
#	34366
#	50126
#	59849
#	77745
#	93254
#	105998
#	129493
#	151200
#	160861
#	181947
#	195939
#	230257
#	244577
#	260864
#	270925
#	284801
#	296191
#	314433
#
# Disc length: 4342 seconds
#
# Revision: 0
# Processed by: cddbd v1.5.2PL0 Copyright (c) Steve Scherf et al.
# Submitted via: CDex 1.70beta2
#
DISCID=1f10f415
DTITLE=The Moving Sidewalks - The Pre ZZ Houston Roots
DYEAR=1994
DGENRE=Blues Rock
TTITLE0=99th Floor
TTITLE1=Every Night A New Surprise
TTITLE2=Lucille (unreleased)
TTITLE3=I Want To Hold Your Hand (rough mix)
TTITLE4=Stay Away (unreleased)
TTITLE5=You Don´t Know The Life
TTITLE6=I Want To Hold Your Hand (2nd final mix)
TTITLE7=What Are You Going To Do
TTITLE8=Flash Back
TTITLE9=Scow-Da-Be
TTITLE10=No Good To Cry
TTITLE11=Pluto - Sept. 31st
TTITLE12=Crimson Witch
TTITLE13=Joe Blues
TTITLE14=I Want To Hold Your Hand
TTITLE15=Eclipse
TTITLE16=Need Me
TTITLE17=You Make Me Shake
TTITLE18=Every Night A New Surprise (1/2 track-unreleased)
TTITLE19=Headin´ Out (unreleased)
TTITLE20=Reclipse
EXTD=YEAR: 1994
EXTT0=
EXTT1=
EXTT2=
EXTT3=
EXTT4=
EXTT5=
EXTT6=
EXTT7=
EXTT8=
EXTT9=
EXTT10=
EXTT11=
EXTT12=
EXTT13=
EXTT14=
EXTT15=
EXTT16=
EXTT17=
EXTT18=
EXTT19=
EXTT20=
PLAYORDER=
